# xmcd
#
# Track frame offsets: 
#        150
#        22927
#        42717
#        61487
#        80860
#        101829
#        118437
#        138487
#        154880
#        171700
#
# Disc length: 2516 seconds
#
# Revision: 0
# Processed by: cddbd v1.5.2PL0 Copyright (c) Steve Scherf et al.
# Submitted via: ExactAudioCopy v0.95b4
#
DISCID=9b09d20a
DTITLE=Swamp Dogg - The Re-Invention of Swamp Dogg
DYEAR=2000
DGENRE=Soul
TTITLE0=Sugar Bum Bum
TTITLE1=Ain't A Nineteen Year Old Got Nothing On You
TTITLE2=I Have Touched The Sky
TTITLE3=Y-v-o-n-n-e
TTITLE4=Artificial Insemination
TTITLE5=Jesus Is Alive In My Heart
TTITLE6=We Need A Change
TTITLE7=Galactic Zoo
TTITLE8=We'll Never Say Goodbye
TTITLE9=It Must Be Love
EXTD=
EXTT0=
EXTT1=
EXTT2=
EXTT3=
EXTT4=
EXTT5=
EXTT6=
EXTT7=
EXTT8=
EXTT9=
PLAYORDER=
